<?xml version="1.0" encoding="UTF-8"?>
<svg version="1.1" xmlns="http://www.w3.org/2000/svg" width="512" height="512">
<path d="M0 0 C2.65617944 -0.00407162 5.31233388 -0.00930969 7.96850586 -0.01593018 C14.39933547 -0.02918542 20.83005932 -0.02642674 27.26089287 -0.01769225 C32.49302911 -0.01088349 37.72513597 -0.01001269 42.95727539 -0.0132637 C43.70538624 -0.0137234 44.4534971 -0.0141831 45.22427797 -0.01465673 C46.74462574 -0.01561602 48.26497349 -0.01658867 49.78532124 -0.0175745 C64.00112602 -0.02610435 78.21687251 -0.0163322 92.43266773 -0.0001734 C104.59837014 0.01322758 116.76398664 0.01089881 128.9296875 -0.00292969 C143.0988379 -0.01902821 157.26793737 -0.0252806 171.43709564 -0.0160929 C172.95147196 -0.01513737 174.46584828 -0.01419426 175.98022461 -0.0132637 C176.7250914 -0.01280088 177.4699582 -0.01233805 178.23739672 -0.0118612 C183.45588446 -0.00928409 188.67433958 -0.01361451 193.89282227 -0.02070236 C200.26296336 -0.02916524 206.63299373 -0.02673762 213.00312233 -0.01086013 C216.24571411 -0.00304114 219.48808657 -0.00142359 222.73068237 -0.00980759 C265.76282492 -0.11075743 265.76282492 -0.11075743 278.94921875 12.62646484 C290.37038063 25.86796615 291.63217828 43.97045103 291.59573364 60.74040222 C291.59729363 61.85302392 291.59885362 62.96564561 291.60046089 64.11198312 C291.60443566 67.8240994 291.60129486 71.53617446 291.59814453 75.24829102 C291.59950017 77.91652546 291.60124502 80.58475711 291.60345459 83.25299072 C291.60789241 89.73955813 291.60694445 96.22611394 291.60404195 102.71268179 C291.60177913 107.98933127 291.6014792 113.26597751 291.60256577 118.54262733 C291.602719 119.29503942 291.60287223 120.04745151 291.60303011 120.82266397 C291.60334985 122.35147092 291.60367407 123.88027788 291.6040027 125.40908483 C291.60685192 139.73398646 291.60357971 154.05888167 291.59820233 168.38378225 C291.59373936 180.65193552 291.59450713 192.92007932 291.59912109 205.18823242 C291.60448457 219.45581684 291.6065725 233.72339564 291.60350883 247.99098092 C291.60319031 249.51554096 291.60287593 251.04010099 291.60256577 252.56466103 C291.60241149 253.31463827 291.60225721 254.06461551 291.60209826 254.83731934 C291.60123809 260.09973535 291.6026853 265.36214777 291.60504532 270.62456322 C291.60786343 277.04942537 291.60706307 283.47427532 291.60176457 289.89913609 C291.59915386 293.17174657 291.59862456 296.44433281 291.60141373 299.71694374 C291.62754177 333.50197754 291.62754177 333.50197754 288.71875 344.95068359 C288.5424707 345.66337402 288.36619141 346.37606445 288.18457031 347.11035156 C283.99412306 363.43700687 276.68458277 378.74912962 265.46875 391.38818359 C264.3859375 392.61601563 264.3859375 392.61601563 263.28125 393.86865234 C261.02805727 396.39175879 258.75136777 398.89169192 256.46875 401.38818359 C254.92537553 403.09497419 253.38369374 404.803297 251.84375 406.51318359 C251.09996094 407.33689453 250.35617187 408.16060547 249.58984375 409.00927734 C247.66166996 411.1718148 245.78218385 413.36795192 243.90625 415.57568359 C229.82155698 431.54900591 211.46323324 438.92399336 190.46875 440.38818359 C181.3448445 440.7492043 172.20879459 440.66216955 163.07958984 440.64697266 C160.33150406 440.64858805 157.58342493 440.65317863 154.83534241 440.65759277 C148.18061094 440.66643192 141.52592489 440.66458957 134.87119173 440.65876749 C129.45836056 440.65423002 124.04554203 440.65364706 118.6327095 440.65581512 C117.47220968 440.65627482 117.47220968 440.65627482 116.28826541 440.65674381 C114.71605319 440.65738333 113.14384098 440.65803176 111.57162876 440.65868899 C96.86994351 440.66437603 82.16828331 440.65785962 67.46660216 440.64708826 C54.8784384 440.63815068 42.29031154 440.63970966 29.70214844 440.64892578 C15.04593412 440.65965111 0.38974166 440.66383058 -14.26647604 440.65770125 C-15.83193103 440.65706422 -17.39738603 440.65643548 -18.96284103 440.65581512 C-20.11787885 440.6553523 -20.11787885 440.6553523 -21.29625077 440.65488012 C-26.69751226 440.65316022 -32.09875975 440.65605292 -37.50001907 440.66077423 C-44.08941478 440.66640813 -50.67876289 440.66481407 -57.26815321 440.65421274 C-60.62388528 440.6489901 -63.97947335 440.64793421 -67.33521461 440.65351105 C-111.06981956 440.71946732 -111.06981956 440.71946732 -126.53125 425.38818359 C-137.36565883 412.69805422 -140.85211844 400.26747734 -140.79194641 383.82873535 C-140.79577196 382.70583084 -140.79959751 381.58292632 -140.80353898 380.4259944 C-140.81381029 376.68482676 -140.8098879 372.94381428 -140.8059082 369.20263672 C-140.81025806 366.51118466 -140.81537824 363.81974375 -140.82139587 361.1282959 C-140.83411213 354.58771077 -140.83594021 348.04716676 -140.83359561 341.50657135 C-140.83180796 336.18373316 -140.83357166 330.86090739 -140.83782005 325.53807068 C-140.83871284 324.39889899 -140.83871284 324.39889899 -140.83962366 323.23671374 C-140.84083551 321.69350024 -140.84204964 320.15028674 -140.84326603 318.60707325 C-140.85413085 304.14898799 -140.85198477 289.69092609 -140.84588119 275.23283952 C-140.84071941 262.04095888 -140.85194981 248.84915224 -140.87097941 235.65728623 C-140.89041191 222.08090677 -140.89860394 208.50456222 -140.89485615 194.92816877 C-140.89295147 187.31866998 -140.89535919 179.70923407 -140.90957069 172.0997467 C-140.92155509 165.61753583 -140.92281151 159.13542648 -140.91078053 152.65321404 C-140.90493932 149.35370481 -140.90532232 146.05441647 -140.91578293 142.75491333 C-141.00209342 113.3947843 -137.32780658 86.52593115 -117.53125 63.38818359 C-116.89960937 62.61216797 -116.26796875 61.83615234 -115.6171875 61.03662109 C-109.12306409 53.37501483 -101.48786745 47.43486654 -93.53125 41.38818359 C-92.69932129 40.75589844 -91.86739258 40.12361328 -91.01025391 39.47216797 C-75.74910954 27.90736792 -75.74910954 27.90736792 -69.6171875 23.68896484 C-66.93732666 21.69094202 -65.41156365 20.27808941 -63.65625 17.51318359 C-58.25551044 9.93495753 -51.46870224 5.57676428 -42.53125 3.38818359 C-41.5249353 3.13584143 -40.51862061 2.88349926 -39.48181152 2.62351036 C-26.37585707 -0.24881107 -13.36377693 -0.03455315 0 0 Z " fill="#EEEEEE" transform="translate(181.53125,31.61181640625)"/>
<path d="M0 0 C2.65617944 -0.00407162 5.31233388 -0.00930969 7.96850586 -0.01593018 C14.39933547 -0.02918542 20.83005932 -0.02642674 27.26089287 -0.01769225 C32.49302911 -0.01088349 37.72513597 -0.01001269 42.95727539 -0.0132637 C43.70538624 -0.0137234 44.4534971 -0.0141831 45.22427797 -0.01465673 C46.74462574 -0.01561602 48.26497349 -0.01658867 49.78532124 -0.0175745 C64.00112602 -0.02610435 78.21687251 -0.0163322 92.43266773 -0.0001734 C104.59837014 0.01322758 116.76398664 0.01089881 128.9296875 -0.00292969 C143.0988379 -0.01902821 157.26793737 -0.0252806 171.43709564 -0.0160929 C172.95147196 -0.01513737 174.46584828 -0.01419426 175.98022461 -0.0132637 C176.7250914 -0.01280088 177.4699582 -0.01233805 178.23739672 -0.0118612 C183.45588446 -0.00928409 188.67433958 -0.01361451 193.89282227 -0.02070236 C200.26296336 -0.02916524 206.63299373 -0.02673762 213.00312233 -0.01086013 C216.24571411 -0.00304114 219.48808657 -0.00142359 222.73068237 -0.00980759 C265.76282492 -0.11075743 265.76282492 -0.11075743 278.94921875 12.62646484 C290.37038063 25.86796615 291.63217828 43.97045103 291.59573364 60.74040222 C291.59729363 61.85302392 291.59885362 62.96564561 291.60046089 64.11198312 C291.60443566 67.8240994 291.60129486 71.53617446 291.59814453 75.24829102 C291.59950017 77.91652546 291.60124502 80.58475711 291.60345459 83.25299072 C291.60789241 89.73955813 291.60694445 96.22611394 291.60404195 102.71268179 C291.60177913 107.98933127 291.6014792 113.26597751 291.60256577 118.54262733 C291.602719 119.29503942 291.60287223 120.04745151 291.60303011 120.82266397 C291.60334985 122.35147092 291.60367407 123.88027788 291.6040027 125.40908483 C291.60685192 139.73398646 291.60357971 154.05888167 291.59820233 168.38378225 C291.59373936 180.65193552 291.59450713 192.92007932 291.59912109 205.18823242 C291.60448457 219.45581684 291.6065725 233.72339564 291.60350883 247.99098092 C291.60319031 249.51554096 291.60287593 251.04010099 291.60256577 252.56466103 C291.60241149 253.31463827 291.60225721 254.06461551 291.60209826 254.83731934 C291.60123809 260.09973535 291.6026853 265.36214777 291.60504532 270.62456322 C291.60786343 277.04942537 291.60706307 283.47427532 291.60176457 289.89913609 C291.59915386 293.17174657 291.59862456 296.44433281 291.60141373 299.71694374 C291.62754177 333.50197754 291.62754177 333.50197754 288.71875 344.95068359 C288.5424707 345.66337402 288.36619141 346.37606445 288.18457031 347.11035156 C283.99412306 363.43700687 276.68458277 378.74912962 265.46875 391.38818359 C264.3859375 392.61601563 264.3859375 392.61601563 263.28125 393.86865234 C261.02805727 396.39175879 258.75136777 398.89169192 256.46875 401.38818359 C254.92537553 403.09497419 253.38369374 404.803297 251.84375 406.51318359 C251.09996094 407.33689453 250.35617187 408.16060547 249.58984375 409.00927734 C247.66166996 411.1718148 245.78218385 413.36795192 243.90625 415.57568359 C229.82155698 431.54900591 211.46323324 438.92399336 190.46875 440.38818359 C181.3448445 440.7492043 172.20879459 440.66216955 163.07958984 440.64697266 C160.33150406 440.64858805 157.58342493 440.65317863 154.83534241 440.65759277 C148.18061094 440.66643192 141.52592489 440.66458957 134.87119173 440.65876749 C129.45836056 440.65423002 124.04554203 440.65364706 118.6327095 440.65581512 C117.47220968 440.65627482 117.47220968 440.65627482 116.28826541 440.65674381 C114.71605319 440.65738333 113.14384098 440.65803176 111.57162876 440.65868899 C96.86994351 440.66437603 82.16828331 440.65785962 67.46660216 440.64708826 C54.8784384 440.63815068 42.29031154 440.63970966 29.70214844 440.64892578 C15.04593412 440.65965111 0.38974166 440.66383058 -14.26647604 440.65770125 C-15.83193103 440.65706422 -17.39738603 440.65643548 -18.96284103 440.65581512 C-20.11787885 440.6553523 -20.11787885 440.6553523 -21.29625077 440.65488012 C-26.69751226 440.65316022 -32.09875975 440.65605292 -37.50001907 440.66077423 C-44.08941478 440.66640813 -50.67876289 440.66481407 -57.26815321 440.65421274 C-60.62388528 440.6489901 -63.97947335 440.64793421 -67.33521461 440.65351105 C-111.06981956 440.71946732 -111.06981956 440.71946732 -126.53125 425.38818359 C-137.36565883 412.69805422 -140.85211844 400.26747734 -140.79194641 383.82873535 C-140.79577196 382.70583084 -140.79959751 381.58292632 -140.80353898 380.4259944 C-140.81381029 376.68482676 -140.8098879 372.94381428 -140.8059082 369.20263672 C-140.81025806 366.51118466 -140.81537824 363.81974375 -140.82139587 361.1282959 C-140.83411213 354.58771077 -140.83594021 348.04716676 -140.83359561 341.50657135 C-140.83180796 336.18373316 -140.83357166 330.86090739 -140.83782005 325.53807068 C-140.83871284 324.39889899 -140.83871284 324.39889899 -140.83962366 323.23671374 C-140.84083551 321.69350024 -140.84204964 320.15028674 -140.84326603 318.60707325 C-140.85413085 304.14898799 -140.85198477 289.69092609 -140.84588119 275.23283952 C-140.84071941 262.04095888 -140.85194981 248.84915224 -140.87097941 235.65728623 C-140.89041191 222.08090677 -140.89860394 208.50456222 -140.89485615 194.92816877 C-140.89295147 187.31866998 -140.89535919 179.70923407 -140.90957069 172.0997467 C-140.92155509 165.61753583 -140.92281151 159.13542648 -140.91078053 152.65321404 C-140.90493932 149.35370481 -140.90532232 146.05441647 -140.91578293 142.75491333 C-141.00209342 113.3947843 -137.32780658 86.52593115 -117.53125 63.38818359 C-116.89960937 62.61216797 -116.26796875 61.83615234 -115.6171875 61.03662109 C-109.12306409 53.37501483 -101.48786745 47.43486654 -93.53125 41.38818359 C-92.69932129 40.75589844 -91.86739258 40.12361328 -91.01025391 39.47216797 C-75.74910954 27.90736792 -75.74910954 27.90736792 -69.6171875 23.68896484 C-66.93732666 21.69094202 -65.41156365 20.27808941 -63.65625 17.51318359 C-58.25551044 9.93495753 -51.46870224 5.57676428 -42.53125 3.38818359 C-41.5249353 3.13584143 -40.51862061 2.88349926 -39.48181152 2.62351036 C-26.37585707 -0.24881107 -13.36377693 -0.03455315 0 0 Z M-55.84375 20.57568359 C-61.93240753 27.86703891 -66.64183033 36.62923505 -66.66826439 46.24816036 C-66.67333893 47.23042502 -66.67841347 48.21268968 -66.68364179 49.22471994 C-66.68413955 50.30144844 -66.68463731 51.37817694 -66.68515015 52.48753357 C-66.6895324 53.63334068 -66.69391465 54.77914779 -66.6984297 55.95967633 C-66.70948569 59.14078906 -66.71603949 62.32187405 -66.72061086 65.50300157 C-66.72657398 68.93403322 -66.73818222 72.36504682 -66.74890137 75.79606628 C-66.77341192 84.0837373 -66.78805199 92.37141429 -66.80096143 100.6591104 C-66.80467481 103.00127448 -66.80864794 105.34343798 -66.8127141 107.68560147 C-66.8379557 122.23967952 -66.8600022 136.79375855 -66.87244225 151.34785366 C-66.8753718 154.71831198 -66.87833348 158.08877027 -66.88134766 161.45922852 C-66.88209371 162.29690984 -66.88283976 163.13459116 -66.88360842 163.99765677 C-66.89625119 177.55545691 -66.92946021 191.11312559 -66.97114949 204.67086434 C-67.01363057 218.60071747 -67.03714453 232.53050343 -67.04236281 246.46042114 C-67.04577029 254.27727173 -67.05744664 262.093917 -67.09046555 269.91070366 C-67.11855246 276.57073324 -67.12942781 283.23051541 -67.11827008 289.8905996 C-67.11310485 293.28487318 -67.11858969 296.67821226 -67.14073563 300.07247925 C-67.24783129 317.43716585 -67.33432693 332.18422754 -54.53125 345.38818359 C-39.7633157 359.73938606 -24.09337824 359.10451742 -4.67871094 358.98754883 C-1.95250199 358.98663924 0.77367724 358.99325129 3.49987793 358.99949646 C10.11134038 359.01011987 16.72248191 358.99430002 23.33389547 358.9693582 C31.04250016 358.94131333 38.75104141 358.94008482 46.45968863 358.93991519 C60.21635815 358.9387302 73.97288106 358.91382455 87.72949219 358.87524414 C101.06284341 358.83787527 114.39608809 358.81664616 127.72949219 358.8137207 C128.55137292 358.81353789 129.37325366 358.81335508 130.22003987 358.81316673 C131.45078255 358.81289827 131.45078255 358.81289827 132.70638871 358.81262439 C134.35860205 358.81225896 136.01081538 358.81188659 137.66302872 358.81150723 C138.47794482 358.81132171 139.29286093 358.8111362 140.13247146 358.81094506 C152.86417625 358.80737138 165.59586473 358.78892099 178.32755287 358.76901398 C182.93329258 358.76200468 187.53902843 358.75721438 192.14477232 358.75405263 C199.44858917 358.74899457 206.7523322 358.73751368 214.05611113 358.71275233 C217.39094037 358.70156552 220.72563575 358.69447543 224.06049347 358.6938858 C227.68042006 358.69262536 231.30009936 358.67905821 234.91998291 358.66233826 C235.96658341 358.66475334 237.0131839 358.66716843 238.09149957 358.66965669 C250.21889053 358.58206763 260.9325495 355.53787568 270.78125 348.13818359 C277.62827436 341.13192611 281.58841563 333.69507046 284.46875 324.38818359 C284.79875 323.39818359 285.12875 322.40818359 285.46875 321.38818359 C285.56153599 319.8355269 285.59785402 318.27917979 285.60017776 316.72375488 C285.60401891 315.75966485 285.60786005 314.79557482 285.6118176 313.80226994 C285.61051787 312.20994368 285.61051787 312.20994368 285.60919189 310.58544922 C285.61216302 309.45950316 285.61513414 308.33355711 285.6181953 307.17349148 C285.62690373 303.38046476 285.62839237 299.58746953 285.62988281 295.79443359 C285.63397071 293.08280755 285.63951335 290.37118483 285.64492798 287.65956116 C285.65851698 280.27700591 285.66453746 272.89445609 285.66893864 265.51189041 C285.67170121 260.90041234 285.6759387 256.28893637 285.68044281 251.67745972 C285.69263831 238.90590039 285.70293571 226.13434274 285.7063179 213.36277771 C285.70653747 212.54512194 285.70675703 211.72746617 285.70698325 210.88503295 C285.70720153 210.06542671 285.70741981 209.24582047 285.7076447 208.40137768 C285.70808817 206.74056689 285.70853473 205.0797561 285.70898438 203.41894531 C285.7092058 202.59512694 285.70942723 201.77130857 285.70965537 200.922526 C285.71359975 187.5864453 285.7310415 174.25041937 285.7543439 160.91435981 C285.77808337 147.21732923 285.79052101 133.52032609 285.79168582 119.82327461 C285.79260135 112.13508245 285.79832238 104.44696155 285.81650543 96.75878906 C285.83194178 90.20887552 285.83700627 83.65905526 285.82876733 77.10912699 C285.82487266 73.76999142 285.82737906 70.43119548 285.83982468 67.09205818 C285.85255338 63.46347422 285.84666167 59.83536808 285.83624268 56.20678711 C285.84429908 55.16308205 285.85235548 54.11937698 285.86065602 53.04404449 C285.77026972 39.5344428 281.56488622 28.69290759 272.46875 18.70068359 C262.13191576 8.82014425 250.27620099 6.23621682 236.39463806 6.2477417 C234.71624142 6.24328502 234.71624142 6.24328502 233.00393778 6.2387383 C229.25253623 6.23006304 225.50116664 6.22854403 221.74975586 6.22705078 C219.0606369 6.22242174 216.37152083 6.21741734 213.68240356 6.21200562 C206.37426948 6.19844289 199.0661409 6.19240058 191.75799632 6.18799496 C187.19054152 6.18522862 182.62308883 6.18099052 178.05563545 6.17649078 C165.39805071 6.16430001 152.74046765 6.15400084 140.08287716 6.15061569 C139.2732651 6.15039613 138.46365304 6.15017656 137.62950728 6.14995034 C136.41225559 6.14962292 136.41225559 6.14962292 135.17041296 6.14928889 C133.52612491 6.14884543 131.88183687 6.14839887 130.23754883 6.14794922 C129.42193281 6.14772779 128.60631679 6.14750636 127.76598514 6.14727822 C114.56077658 6.14333325 101.35562331 6.12588756 88.1504361 6.1025897 C74.57760223 6.07883747 61.00479606 6.06641206 47.43194109 6.06524777 C39.81750607 6.0643331 32.20314306 6.05863348 24.58872795 6.04042816 C18.10262423 6.02497472 11.61661478 6.01993741 5.13049614 6.02816626 C1.82555288 6.03205455 -1.47916256 6.02957772 -4.78409004 6.01710892 C-32.83902146 5.72488905 -32.83902146 5.72488905 -55.84375 20.57568359 Z " fill="#717171" transform="translate(181.53125,31.61181640625)"/>
<path d="M0 0 C5.71022807 5.26321527 7.18695586 10.70496176 7.53125 18.19335938 C7.5621875 19.05767578 7.593125 19.92199219 7.625 20.8125 C7.68300781 22.13797852 7.68300781 22.13797852 7.7421875 23.49023438 C7.83600784 25.65982972 7.91907326 27.82988547 8 30 C8.55945313 29.56429687 9.11890625 29.12859375 9.6953125 28.6796875 C22.95490618 18.83092178 38.37596619 13.25698204 55 15 C69.01055409 18.33674901 79.61062501 27.33706462 87.1875 39.3125 C90.57150321 45.02592553 93.44628419 50.87353756 96 57 C96.4125 56.17757812 96.825 55.35515625 97.25 54.5078125 C101.14816908 46.97251245 105.33905378 40.38266048 111 34 C111.84691406 33.02933594 111.84691406 33.02933594 112.7109375 32.0390625 C117.16524376 27.25016046 122.23729435 24.03784803 128 21 C128.90105469 20.48566406 128.90105469 20.48566406 129.8203125 19.9609375 C138.54823083 15.77310225 150.89788562 17.06520399 159.9375 19.625 C175.33686746 25.12888351 185.70495456 35.44957766 193 50 C210.64033734 87.57604388 211.85590217 140.1223378 213 181 C213.02191406 181.75273193 213.04382813 182.50546387 213.06640625 183.28100586 C213.20089375 188.09536163 213.29650129 192.90873728 213.34844971 197.72470093 C213.36589104 199.26044006 213.38879309 200.79612876 213.41766357 202.33169556 C213.5530966 210.41055543 213.664295 217.10606947 209 224 C203.88205847 228.86204445 199.57586741 230.5268247 192.6015625 230.3828125 C187.10936848 229.57465182 183.40377839 226.44071993 179.625 222.5625 C176.3469136 217.39320991 175.74369081 212.60369325 175.65625 206.55859375 C175.64244293 205.84700104 175.62863586 205.13540833 175.6144104 204.4022522 C175.58488819 202.87534023 175.55908692 201.34835256 175.53668213 199.82131958 C175.4740742 195.75268942 175.3746446 191.6850155 175.2734375 187.6171875 C175.25320526 186.79765091 175.23297302 185.97811432 175.21212769 185.13374329 C174.41598001 154.9565904 171.31438698 124.7092835 166 95 C165.8335498 94.0620459 165.66709961 93.1240918 165.49560547 92.15771484 C162.55389949 72.82958655 162.55389949 72.82958655 152 57 C148.6698162 55.3349081 145.55821634 55.14757794 142 56 C126.51538712 66.99116572 123.49457752 95.50156029 120.53808594 112.84790039 C120.24866322 114.54333444 119.95581288 116.23828406 119.64221191 117.92941284 C116.9015311 132.71989661 116.31345738 147.34810541 115.91601562 162.35961914 C115.83022768 165.44202765 115.7281593 168.52360029 115.625 171.60546875 C115.60614746 172.53264206 115.58729492 173.45981537 115.56787109 174.41508484 C115.34754178 180.84281686 114.57941601 186.899913 110.31640625 192.0234375 C109.73761719 192.46945312 109.15882813 192.91546875 108.5625 193.375 C107.98628906 193.83648437 107.41007813 194.29796875 106.81640625 194.7734375 C101.61164331 198.28805162 97.21290523 198.88755789 91 198 C84.54777219 195.59579033 80.82975872 191.16564431 78 185 C77.21021612 181.16427341 77.07488678 177.37676878 76.9609375 173.46875 C76.90853912 172.36059937 76.85614075 171.25244873 76.80215454 170.11071777 C76.63809482 166.57436747 76.5046487 163.03776467 76.375 159.5 C75.15691146 127.19647877 75.15691146 127.19647877 69.1875 95.5 C68.92960693 94.51354492 68.67171387 93.52708984 68.40600586 92.51074219 C62.82917131 70.70906033 62.82917131 70.70906033 50 53 C42.85694402 51.63218077 36.94180524 55.30516239 31 59 C22.12219166 65.80286148 17.62623853 75.58555738 13.95703125 85.90625 C13 88 13 88 11.44702148 89.2175293 C9.23365368 91.94400109 9.74406066 94.15588366 9.890625 97.61328125 C9.91433167 98.28267731 9.93803833 98.95207336 9.96246338 99.64175415 C10.04421587 101.86612695 10.14730219 104.08900399 10.25 106.3125 C10.3109234 107.87501683 10.3701388 109.4376011 10.42773438 111.00024414 C10.5187508 113.45689486 10.61122432 115.91342356 10.70947266 118.36979675 C10.94500638 124.26912708 11.12413804 130.16800771 11.265625 136.0703125 C11.28530838 136.89091156 11.30499176 137.71151062 11.32527161 138.55697632 C11.3643156 140.20002781 11.40316073 141.84308403 11.44180298 143.48614502 C11.74350357 157.53270898 11.74350357 157.53270898 12.41873169 171.56443787 C13.02661419 181.59824106 13.16955885 191.63213831 13.23117065 201.68167114 C13.2436277 203.46351302 13.2610665 205.2453277 13.28372192 207.02706909 C13.31376847 209.54686455 13.32352386 212.06598232 13.328125 214.5859375 C13.34657722 215.72378944 13.34657722 215.72378944 13.36540222 216.8846283 C13.34560226 221.6849546 12.54644906 224.92943733 10 229 C5.01205984 233.87709705 0.98703842 235.66275373 -5.875 236.4375 C-10.80056856 236.29596067 -14.3028648 234.13024113 -18 231 C-23.61283303 224.05781178 -24.32110039 217.27070501 -24.5625 208.67358398 C-24.59862774 207.64107419 -24.63475548 206.6085644 -24.671978 205.54476643 C-24.78988948 202.11210378 -24.89497938 198.67917308 -25 195.24609375 C-25.08073035 192.81778496 -25.1622276 190.38950155 -25.2444458 187.96124268 C-25.43970354 182.13253578 -25.62664916 176.30360747 -25.80947852 170.47449839 C-26.02006245 163.77092813 -26.2401032 157.06767819 -26.4603467 150.36441958 C-26.95185589 135.38819357 -27.42451001 120.41139884 -27.89242554 105.43441772 C-28.02340893 101.25264763 -28.15585067 97.07092472 -28.2884903 92.88920689 C-28.59629926 83.18272201 -28.8971438 73.47605452 -29.1875 63.76903152 C-29.24900665 61.72058309 -29.31143978 59.67216456 -29.37402344 57.62374878 C-29.58902254 50.50395811 -29.77482007 43.38467438 -29.92016602 36.26312256 C-30.00206671 32.91552563 -30.12811175 29.5712281 -30.25585938 26.22509766 C-30.31268445 24.07328093 -30.36808933 21.92142609 -30.421875 19.76953125 C-30.46934875 18.80987961 -30.51682251 17.85022797 -30.56573486 16.86149597 C-30.68614444 9.77409814 -28.64965759 5.34210248 -24 0 C-16.42879129 -5.76853997 -7.70360596 -5.25981499 0 0 Z " fill="#6E6E6E" transform="translate(210,98)"/>
<path d="M0 0 C0.86730713 2.39721537 1.16996601 3.57127976 0.21484375 5.98046875 C-0.41744141 7.07294922 -0.41744141 7.07294922 -1.0625 8.1875 C-3.5237594 12.78456302 -5.23439188 17.38519964 -6.875 22.3125 C-13.1695473 40.76273356 -24.35653528 54.53885739 -37.55957031 68.46679688 C-41.30822014 72.45688517 -44.91760148 76.54649342 -48.1875 80.9375 C-55.54397736 89.70317269 -66.22285011 95.59263232 -77 99 C-77.77681972 99.25415334 -78.55363943 99.50830667 -79.35399914 99.77016163 C-90.9835811 103.00055183 -102.82227284 102.39740516 -114.79223633 102.34057617 C-117.29658498 102.33972894 -119.80093437 102.34020692 -122.30528259 102.34190369 C-127.67499724 102.34258414 -133.04457597 102.33414302 -138.41425514 102.31719017 C-146.1776621 102.29269607 -153.94101632 102.28498432 -161.70445772 102.2812262 C-174.30340886 102.27467794 -186.90230136 102.25476117 -199.5012207 102.22631836 C-211.73201201 102.19873552 -223.96278734 102.17752268 -236.19360352 102.16479492 C-237.32652572 102.16361267 -237.32652572 102.16361267 -238.48233525 102.16240653 C-242.271771 102.15849111 -246.06120686 102.15470006 -249.8506428 102.15097082 C-281.23380448 102.11992559 -312.6168933 102.06690968 -344 102 C-342.56443873 97.56076191 -340.8733354 93.55395041 -338.7265625 89.40625 C-338.24663849 88.4758062 -338.24663849 88.4758062 -337.75701904 87.52656555 C-336.71761377 85.51528848 -335.6715846 83.50754932 -334.625 81.5 C-333.90174387 80.10511971 -333.17860028 78.71018106 -332.45556641 77.31518555 C-327.74562648 68.24907346 -322.9416281 59.23768481 -317.98291016 50.3046875 C-315.49709954 45.81512979 -313.12160592 41.28864899 -310.83447266 36.6940918 C-310.30149567 35.62450729 -309.76851868 34.55492279 -309.21939087 33.45292664 C-308.81699188 32.64346085 -308.4145929 31.83399506 -308 31 C-307.14091497 30.99967395 -307.14091497 30.99967395 -306.26447469 30.99934131 C-272.28560858 30.98581198 -238.30687909 30.94626494 -204.32808949 30.87314438 C-200.24403596 30.86437811 -196.159982 30.85582821 -192.07592773 30.84741211 C-190.85638604 30.84489352 -190.85638604 30.84489352 -189.61220714 30.84232404 C-176.46483495 30.81568757 -163.31750637 30.80656137 -150.17010996 30.80395857 C-136.66972826 30.80089416 -123.16947217 30.77889114 -109.66914719 30.73947543 C-101.34531035 30.71576489 -93.02172463 30.70665264 -84.69785871 30.71648689 C-78.98219816 30.72182149 -73.26676167 30.70868416 -67.5511649 30.6813371 C-64.25830565 30.66611761 -60.96604648 30.66148755 -57.67315865 30.67340279 C-39.27824091 30.73335576 -25.34837921 29.76431815 -11 17 C-6.19716478 11.88413083 -2.89191667 6.36221667 0 0 Z " fill="#D2D2D2" transform="translate(468,364)"/>
<path d="M0 0 C-0.67804688 0.32871094 -1.35609375 0.65742187 -2.0546875 0.99609375 C-16.94525361 8.60636923 -25.80747715 19.15614822 -31 35 C-31.76622797 38.32351998 -32.12184408 41.38084631 -32.10793877 44.78837872 C-32.10662952 45.72920038 -32.10532028 46.67002204 -32.10397136 47.63935345 C-32.09744615 48.66463314 -32.09092094 49.68991283 -32.084198 50.7462616 C-32.08137475 51.84195365 -32.0785515 52.9376457 -32.0756427 54.06654054 C-32.06522745 57.74515498 -32.04785128 61.42370591 -32.03076172 65.10229492 C-32.02233571 67.73702001 -32.01437282 70.37174139 -32.00721741 73.00646973 C-31.99552139 77.21867017 -31.98346969 81.4308673 -31.96924853 85.64306009 C-31.93435842 96.08881583 -31.91829753 106.53448995 -31.91360474 116.9803009 C-31.9132349 117.7361677 -31.91286507 118.49203449 -31.91248403 119.27080633 C-31.90950964 125.49505001 -31.9073334 131.71929392 -31.90558323 137.94353805 C-31.90399632 143.54805259 -31.90172673 149.15256627 -31.8984375 154.75708008 C-31.89774705 155.95561722 -31.89774705 155.95561722 -31.89704265 157.17836723 C-31.88849281 170.12067267 -31.84404994 183.06263158 -31.78726016 196.00480434 C-31.72982667 209.30083747 -31.71430171 222.59646182 -31.73666394 235.89260179 C-31.74906808 244.08905111 -31.72852344 252.28405513 -31.6653678 260.48027638 C-31.62511993 266.10121089 -31.62539369 271.72124111 -31.65716784 277.34222605 C-31.67427877 280.58299529 -31.66774447 283.82064519 -31.62482262 287.06125069 C-31.37019258 307.51622646 -31.37019258 307.51622646 -35.35287857 312.6524601 C-38.11717743 315.21246735 -40.76873179 317.08377093 -44 319 C-45.76955136 320.41336274 -47.52241769 321.84813474 -49.25 323.3125 C-50.15621094 324.0446875 -51.06242187 324.776875 -51.99609375 325.53125 C-55.48716305 328.40037327 -58.90375351 331.34647618 -62.3125 334.3125 C-62.94534912 334.86292969 -63.57819824 335.41335938 -64.23022461 335.98046875 C-65.51558109 337.09882175 -66.80081848 338.21731163 -68.0859375 339.3359375 C-93.00469484 361 -93.00469484 361 -95 361 C-95.06854441 329.40681605 -95.12158393 297.81365339 -95.15319599 266.22041237 C-95.15694778 262.48442518 -95.16083078 258.74843814 -95.16479492 255.01245117 C-95.16558185 254.26873214 -95.16636878 253.5250131 -95.16717956 252.75875712 C-95.18020781 240.74112838 -95.20384731 228.72354301 -95.23145839 216.70593994 C-95.25958464 204.36048474 -95.27619147 192.01505214 -95.28226548 179.66956621 C-95.28636701 172.06128627 -95.29928709 164.45312895 -95.3237494 156.84488679 C-95.34159006 150.99557192 -95.3433475 145.14631885 -95.33932304 139.29697609 C-95.34014417 136.90862146 -95.34605512 134.52026191 -95.35761642 132.13193512 C-95.42939723 116.53006872 -95.12758815 101.78098271 -88.75 87.25 C-88.44626465 86.53956543 -88.1425293 85.82913086 -87.82958984 85.09716797 C-78.46754999 63.8189268 -62.12436021 50.11820347 -43.90234375 36.6484375 C-43.0918457 36.04362549 -42.28134766 35.43881348 -41.44628906 34.81567383 C-39.7978258 33.59215873 -38.13795387 32.3838847 -36.46777344 31.19018555 C-31.96596988 27.88544836 -29.076981 25.57543846 -27.375 20.0625 C-24.17422607 11.35291107 -19.42537517 6.14443961 -11.14453125 1.96875 C-3.90487239 -1.30162413 -3.90487239 -1.30162413 0 0 Z " fill="#D3D3D3" transform="translate(142,36)"/>
<path d="M0 0 C0.33 0 0.66 0 1 0 C1.15855469 0.75023437 1.31710938 1.50046875 1.48046875 2.2734375 C4.96649719 17.56573904 12.1217287 28.77315104 25.3828125 37.53125 C31.46015367 40.94181758 38.05372654 43.24905152 45 44 C43.63016347 48.45680395 41.86859089 52.45521627 39.7265625 56.59375 C39.24663849 57.5241938 39.24663849 57.5241938 38.75701904 58.47343445 C37.71761377 60.48471152 36.6715846 62.49245068 35.625 64.5 C34.90174387 65.89488029 34.17860028 67.28981894 33.45556641 68.68481445 C28.74562648 77.75092654 23.9416281 86.76231519 18.98291016 95.6953125 C15.46969514 102.04043849 12.20573268 108.49449423 9 115 C4.6624679 115.07517053 0.32529897 115.12907363 -4.01269531 115.16479492 C-5.48281473 115.17971429 -6.952891 115.20005727 -8.42285156 115.22631836 C-24.58958896 115.50752696 -37.52878033 113.13729258 -49.75 101.875 C-60.52745066 90.58252073 -62.66002416 77.16171843 -62.77661133 62.21289062 C-62.65289288 57.37759078 -62.52859618 53.94990857 -60.15234375 49.6796875 C-57.5694736 47.395628 -54.98371483 45.72106462 -52 44 C-50.2472456 42.6126234 -48.51838186 41.19462067 -46.8125 39.75 C-45.43964844 38.63818359 -45.43964844 38.63818359 -44.0390625 37.50390625 C-40.53893276 34.62012327 -37.10879321 31.66398565 -33.6875 28.6875 C-33.05400635 28.13642578 -32.4205127 27.58535156 -31.76782227 27.01757812 C-30.48168345 25.89837515 -29.19563212 24.77907163 -27.90966797 23.65966797 C-19.7087595 16.53236348 -11.45424733 9.48482813 -3.01171875 2.64453125 C-1.12373351 1.15704175 -1.12373351 1.15704175 0 0 Z " fill="#EEEEEE" transform="translate(109,351)"/>
<path d="M0 0 C8.76286352 0.5714911 16.87850027 4.73937528 23 11 C27.6773842 17.29647873 30.04147688 23.23265744 31 31 C28.78617149 28.15739179 26.92316332 25.24505636 25.125 22.125 C18.76414348 11.51838839 10.99531149 6.19778361 0 1 C0 0.67 0 0.34 0 0 Z " fill="#E8E8E8" transform="translate(439,35)"/>
<path d="M0 0 C-1.01707031 0.49306641 -1.01707031 0.49306641 -2.0546875 0.99609375 C-12.85571257 6.51628523 -20.8797544 13.47616306 -27 24 C-28.35684935 19.92945194 -27.27368271 18.18591787 -25.4921875 14.4140625 C-20.89470977 6.97625822 -13.16548719 1.99228936 -4.95703125 -0.66015625 C-3 -1 -3 -1 0 0 Z " fill="#E8E8E8" transform="translate(142,36)"/>
<path d="M0 0 C1.07866223 2.72914541 1.03293178 3.89977283 0.1015625 6.734375 C-4.82583705 16.79774128 -10.78840701 23.09877617 -21.15234375 27.50390625 C-23 28 -23 28 -25 27 C-24.14277344 26.443125 -23.28554688 25.88625 -22.40234375 25.3125 C-11.87914766 18.34780575 -5.21191145 11.72079625 0 0 Z " fill="#E7E7E7" transform="translate(468,364)"/>
<path d="M0 0 C0.95465783 2.16967689 1.14401212 3.56328793 0.3984375 5.82421875 C-0.35870385 7.5684743 -1.17609198 9.28627131 -2 11 C-2.66 10.67 -3.32 10.34 -4 10 C-2.8905928 6.51329166 -1.73662334 3.22515763 0 0 Z " fill="#CECECE" transform="translate(468,364)"/>
</svg>
